<mxfile host="65bd71144e">
    <diagram id="9xQLrGvNYB2fGodNudq_" name="Page-1">
        <mxGraphModel dx="1365" dy="543" grid="1" gridSize="10" guides="1" tooltips="1" connect="1" arrows="1" fold="1" page="1" pageScale="1" pageWidth="1169" pageHeight="827" math="0" shadow="0">
            <root>
                <mxCell id="0"/>
                <mxCell id="1" parent="0"/>
                <mxCell id="125" value="" style="edgeStyle=none;html=1;" edge="1" parent="1" source="2" target="124">
                    <mxGeometry relative="1" as="geometry"/>
                </mxCell>
                <mxCell id="2" value="Usuário" style="whiteSpace=wrap;html=1;aspect=fixed;" vertex="1" parent="1">
                    <mxGeometry x="320" y="340" width="60" height="60" as="geometry"/>
                </mxCell>
                <mxCell id="6" value="" style="edgeStyle=none;html=1;" edge="1" parent="1" source="3" target="5">
                    <mxGeometry relative="1" as="geometry"/>
                </mxCell>
                <mxCell id="8" value="" style="edgeStyle=none;html=1;" edge="1" parent="1" source="3" target="7">
                    <mxGeometry relative="1" as="geometry"/>
                </mxCell>
                <mxCell id="3" value="Movimentações" style="rhombus;whiteSpace=wrap;html=1;" vertex="1" parent="1">
                    <mxGeometry x="295" y="560" width="110" height="115" as="geometry"/>
                </mxCell>
                <mxCell id="5" value="Receita" style="whiteSpace=wrap;html=1;" vertex="1" parent="1">
                    <mxGeometry x="420" y="680" width="70" height="60" as="geometry"/>
                </mxCell>
                <mxCell id="7" value="Despesa" style="whiteSpace=wrap;html=1;" vertex="1" parent="1">
                    <mxGeometry x="210" y="680" width="70" height="60" as="geometry"/>
                </mxCell>
                <mxCell id="26" value="Usuário" style="swimlane;fontStyle=0;childLayout=stackLayout;horizontal=1;startSize=30;horizontalStack=0;resizeParent=1;resizeParentMax=0;resizeLast=0;collapsible=1;marginBottom=0;" vertex="1" parent="1">
                    <mxGeometry x="530" y="30" width="250" height="270" as="geometry">
                        <mxRectangle x="750" y="210" width="70" height="30" as="alternateBounds"/>
                    </mxGeometry>
                </mxCell>
                <mxCell id="27" value="String nome" style="text;strokeColor=none;fillColor=none;align=left;verticalAlign=middle;spacingLeft=4;spacingRight=4;overflow=hidden;points=[[0,0.5],[1,0.5]];portConstraint=eastwest;rotatable=0;" vertex="1" parent="26">
                    <mxGeometry y="30" width="250" height="30" as="geometry"/>
                </mxCell>
                <mxCell id="28" value="String email" style="text;strokeColor=none;fillColor=none;align=left;verticalAlign=middle;spacingLeft=4;spacingRight=4;overflow=hidden;points=[[0,0.5],[1,0.5]];portConstraint=eastwest;rotatable=0;" vertex="1" parent="26">
                    <mxGeometry y="60" width="250" height="30" as="geometry"/>
                </mxCell>
                <mxCell id="29" value="String password" style="text;strokeColor=none;fillColor=none;align=left;verticalAlign=middle;spacingLeft=4;spacingRight=4;overflow=hidden;points=[[0,0.5],[1,0.5]];portConstraint=eastwest;rotatable=0;" vertex="1" parent="26">
                    <mxGeometry y="90" width="250" height="30" as="geometry"/>
                </mxCell>
                <mxCell id="30" value="String foto" style="text;strokeColor=none;fillColor=none;align=left;verticalAlign=middle;spacingLeft=4;spacingRight=4;overflow=hidden;points=[[0,0.5],[1,0.5]];portConstraint=eastwest;rotatable=0;" vertex="1" parent="26">
                    <mxGeometry y="120" width="250" height="30" as="geometry"/>
                </mxCell>
                <mxCell id="32" value="List &lt;Movimentacao&gt; listaDeMovimentacao" style="text;strokeColor=none;fillColor=none;align=left;verticalAlign=middle;spacingLeft=4;spacingRight=4;overflow=hidden;points=[[0,0.5],[1,0.5]];portConstraint=eastwest;rotatable=0;" vertex="1" parent="26">
                    <mxGeometry y="150" width="250" height="30" as="geometry"/>
                </mxCell>
                <mxCell id="56" value="DateTime criadoEm" style="text;strokeColor=none;fillColor=none;align=left;verticalAlign=middle;spacingLeft=4;spacingRight=4;overflow=hidden;points=[[0,0.5],[1,0.5]];portConstraint=eastwest;rotatable=0;" vertex="1" parent="26">
                    <mxGeometry y="180" width="250" height="30" as="geometry"/>
                </mxCell>
                <mxCell id="57" value="DateTime atualizadoEm" style="text;strokeColor=none;fillColor=none;align=left;verticalAlign=middle;spacingLeft=4;spacingRight=4;overflow=hidden;points=[[0,0.5],[1,0.5]];portConstraint=eastwest;rotatable=0;" vertex="1" parent="26">
                    <mxGeometry y="210" width="250" height="30" as="geometry"/>
                </mxCell>
                <mxCell id="79" value="List&lt;Conta&gt; listaDeContas" style="text;strokeColor=none;fillColor=none;align=left;verticalAlign=middle;spacingLeft=4;spacingRight=4;overflow=hidden;points=[[0,0.5],[1,0.5]];portConstraint=eastwest;rotatable=0;" vertex="1" parent="26">
                    <mxGeometry y="240" width="250" height="30" as="geometry"/>
                </mxCell>
                <mxCell id="47" value="Movimentação" style="swimlane;fontStyle=0;childLayout=stackLayout;horizontal=1;startSize=30;horizontalStack=0;resizeParent=1;resizeParentMax=0;resizeLast=0;collapsible=1;marginBottom=0;" vertex="1" parent="1">
                    <mxGeometry x="10" y="300" width="170" height="300" as="geometry">
                        <mxRectangle x="750" y="210" width="70" height="30" as="alternateBounds"/>
                    </mxGeometry>
                </mxCell>
                <mxCell id="48" value="Uuid id" style="text;strokeColor=none;fillColor=none;align=left;verticalAlign=middle;spacingLeft=4;spacingRight=4;overflow=hidden;points=[[0,0.5],[1,0.5]];portConstraint=eastwest;rotatable=0;" vertex="1" parent="47">
                    <mxGeometry y="30" width="170" height="30" as="geometry"/>
                </mxCell>
                <mxCell id="49" value="bool ehReceita" style="text;strokeColor=none;fillColor=none;align=left;verticalAlign=middle;spacingLeft=4;spacingRight=4;overflow=hidden;points=[[0,0.5],[1,0.5]];portConstraint=eastwest;rotatable=0;" vertex="1" parent="47">
                    <mxGeometry y="60" width="170" height="30" as="geometry"/>
                </mxCell>
                <mxCell id="55" value="DateTime diaDePagamento" style="text;strokeColor=none;fillColor=none;align=left;verticalAlign=middle;spacingLeft=4;spacingRight=4;overflow=hidden;points=[[0,0.5],[1,0.5]];portConstraint=eastwest;rotatable=0;" vertex="1" parent="47">
                    <mxGeometry y="90" width="170" height="30" as="geometry"/>
                </mxCell>
                <mxCell id="50" value="Conta recebimento" style="text;strokeColor=none;fillColor=none;align=left;verticalAlign=middle;spacingLeft=4;spacingRight=4;overflow=hidden;points=[[0,0.5],[1,0.5]];portConstraint=eastwest;rotatable=0;" vertex="1" parent="47">
                    <mxGeometry y="120" width="170" height="30" as="geometry"/>
                </mxCell>
                <mxCell id="51" value="Double valor" style="text;strokeColor=none;fillColor=none;align=left;verticalAlign=middle;spacingLeft=4;spacingRight=4;overflow=hidden;points=[[0,0.5],[1,0.5]];portConstraint=eastwest;rotatable=0;" vertex="1" parent="47">
                    <mxGeometry y="150" width="170" height="30" as="geometry"/>
                </mxCell>
                <mxCell id="52" value="Empresa  pagadora" style="text;strokeColor=none;fillColor=none;align=left;verticalAlign=middle;spacingLeft=4;spacingRight=4;overflow=hidden;points=[[0,0.5],[1,0.5]];portConstraint=eastwest;rotatable=0;" vertex="1" parent="47">
                    <mxGeometry y="180" width="170" height="30" as="geometry"/>
                </mxCell>
                <mxCell id="53" value="DateTime criadaEm" style="text;strokeColor=none;fillColor=none;align=left;verticalAlign=middle;spacingLeft=4;spacingRight=4;overflow=hidden;points=[[0,0.5],[1,0.5]];portConstraint=eastwest;rotatable=0;" vertex="1" parent="47">
                    <mxGeometry y="210" width="170" height="30" as="geometry"/>
                </mxCell>
                <mxCell id="54" value="DateTime atualizadaEm" style="text;strokeColor=none;fillColor=none;align=left;verticalAlign=middle;spacingLeft=4;spacingRight=4;overflow=hidden;points=[[0,0.5],[1,0.5]];portConstraint=eastwest;rotatable=0;" vertex="1" parent="47">
                    <mxGeometry y="240" width="170" height="30" as="geometry"/>
                </mxCell>
                <mxCell id="67" value="Enum categoria" style="text;strokeColor=none;fillColor=none;align=left;verticalAlign=middle;spacingLeft=4;spacingRight=4;overflow=hidden;points=[[0,0.5],[1,0.5]];portConstraint=eastwest;rotatable=0;" vertex="1" parent="47">
                    <mxGeometry y="270" width="170" height="30" as="geometry"/>
                </mxCell>
                <mxCell id="82" value="Cartão" style="swimlane;fontStyle=0;childLayout=stackLayout;horizontal=1;startSize=30;horizontalStack=0;resizeParent=1;resizeParentMax=0;resizeLast=0;collapsible=1;marginBottom=0;" vertex="1" parent="1">
                    <mxGeometry x="210" y="40" width="250" height="180" as="geometry">
                        <mxRectangle x="750" y="210" width="70" height="30" as="alternateBounds"/>
                    </mxGeometry>
                </mxCell>
                <mxCell id="94" value="Double saldo" style="text;strokeColor=none;fillColor=none;align=left;verticalAlign=middle;spacingLeft=4;spacingRight=4;overflow=hidden;points=[[0,0.5],[1,0.5]];portConstraint=eastwest;rotatable=0;" vertex="1" parent="82">
                    <mxGeometry y="30" width="250" height="30" as="geometry"/>
                </mxCell>
                <mxCell id="87" value="List &lt;Movimentacao&gt; listaDeMovimentacao" style="text;strokeColor=none;fillColor=none;align=left;verticalAlign=middle;spacingLeft=4;spacingRight=4;overflow=hidden;points=[[0,0.5],[1,0.5]];portConstraint=eastwest;rotatable=0;" vertex="1" parent="82">
                    <mxGeometry y="60" width="250" height="30" as="geometry"/>
                </mxCell>
                <mxCell id="88" value="DateTime criadoEm" style="text;strokeColor=none;fillColor=none;align=left;verticalAlign=middle;spacingLeft=4;spacingRight=4;overflow=hidden;points=[[0,0.5],[1,0.5]];portConstraint=eastwest;rotatable=0;" vertex="1" parent="82">
                    <mxGeometry y="90" width="250" height="30" as="geometry"/>
                </mxCell>
                <mxCell id="89" value="DateTime atualizadoEm" style="text;strokeColor=none;fillColor=none;align=left;verticalAlign=middle;spacingLeft=4;spacingRight=4;overflow=hidden;points=[[0,0.5],[1,0.5]];portConstraint=eastwest;rotatable=0;" vertex="1" parent="82">
                    <mxGeometry y="120" width="250" height="30" as="geometry"/>
                </mxCell>
                <mxCell id="99" value="Double saldo" style="text;strokeColor=none;fillColor=none;align=left;verticalAlign=middle;spacingLeft=4;spacingRight=4;overflow=hidden;points=[[0,0.5],[1,0.5]];portConstraint=eastwest;rotatable=0;" vertex="1" parent="82">
                    <mxGeometry y="150" width="250" height="30" as="geometry"/>
                </mxCell>
                <mxCell id="95" value="Bandeira" style="swimlane;fontStyle=0;childLayout=stackLayout;horizontal=1;startSize=30;horizontalStack=0;resizeParent=1;resizeParentMax=0;resizeLast=0;collapsible=1;marginBottom=0;" vertex="1" parent="1">
                    <mxGeometry x="20" y="60" width="140" height="90" as="geometry"/>
                </mxCell>
                <mxCell id="83" value="String nome" style="text;strokeColor=none;fillColor=none;align=left;verticalAlign=middle;spacingLeft=4;spacingRight=4;overflow=hidden;points=[[0,0.5],[1,0.5]];portConstraint=eastwest;rotatable=0;" vertex="1" parent="95">
                    <mxGeometry y="30" width="140" height="30" as="geometry"/>
                </mxCell>
                <mxCell id="86" value="String foto" style="text;strokeColor=none;fillColor=none;align=left;verticalAlign=middle;spacingLeft=4;spacingRight=4;overflow=hidden;points=[[0,0.5],[1,0.5]];portConstraint=eastwest;rotatable=0;" vertex="1" parent="95">
                    <mxGeometry y="60" width="140" height="30" as="geometry"/>
                </mxCell>
                <mxCell id="100" value="EnumCategoriaDesepesa" style="swimlane;fontStyle=0;childLayout=stackLayout;horizontal=1;startSize=30;horizontalStack=0;resizeParent=1;resizeParentMax=0;resizeLast=0;collapsible=1;marginBottom=0;" vertex="1" parent="1">
                    <mxGeometry x="860" y="30" width="160" height="150" as="geometry">
                        <mxRectangle x="750" y="210" width="70" height="30" as="alternateBounds"/>
                    </mxGeometry>
                </mxCell>
                <mxCell id="104" value="Educação" style="text;strokeColor=none;fillColor=none;align=left;verticalAlign=middle;spacingLeft=4;spacingRight=4;overflow=hidden;points=[[0,0.5],[1,0.5]];portConstraint=eastwest;rotatable=0;" vertex="1" parent="100">
                    <mxGeometry y="30" width="160" height="30" as="geometry"/>
                </mxCell>
                <mxCell id="111" value="Casa" style="text;strokeColor=none;fillColor=none;align=left;verticalAlign=middle;spacingLeft=4;spacingRight=4;overflow=hidden;points=[[0,0.5],[1,0.5]];portConstraint=eastwest;rotatable=0;" vertex="1" parent="100">
                    <mxGeometry y="60" width="160" height="30" as="geometry"/>
                </mxCell>
                <mxCell id="112" value="Alimentação" style="text;strokeColor=none;fillColor=none;align=left;verticalAlign=middle;spacingLeft=4;spacingRight=4;overflow=hidden;points=[[0,0.5],[1,0.5]];portConstraint=eastwest;rotatable=0;" vertex="1" parent="100">
                    <mxGeometry y="90" width="160" height="30" as="geometry"/>
                </mxCell>
                <mxCell id="113" value="Outros" style="text;strokeColor=none;fillColor=none;align=left;verticalAlign=middle;spacingLeft=4;spacingRight=4;overflow=hidden;points=[[0,0.5],[1,0.5]];portConstraint=eastwest;rotatable=0;" vertex="1" parent="100">
                    <mxGeometry y="120" width="160" height="30" as="geometry"/>
                </mxCell>
                <mxCell id="116" value="EnumCategoriaReceita" style="swimlane;fontStyle=0;childLayout=stackLayout;horizontal=1;startSize=30;horizontalStack=0;resizeParent=1;resizeParentMax=0;resizeLast=0;collapsible=1;marginBottom=0;" vertex="1" parent="1">
                    <mxGeometry x="860" y="200" width="160" height="120" as="geometry">
                        <mxRectangle x="750" y="210" width="70" height="30" as="alternateBounds"/>
                    </mxGeometry>
                </mxCell>
                <mxCell id="117" value="Salário" style="text;strokeColor=none;fillColor=none;align=left;verticalAlign=middle;spacingLeft=4;spacingRight=4;overflow=hidden;points=[[0,0.5],[1,0.5]];portConstraint=eastwest;rotatable=0;" vertex="1" parent="116">
                    <mxGeometry y="30" width="160" height="30" as="geometry"/>
                </mxCell>
                <mxCell id="118" value="Extra" style="text;strokeColor=none;fillColor=none;align=left;verticalAlign=middle;spacingLeft=4;spacingRight=4;overflow=hidden;points=[[0,0.5],[1,0.5]];portConstraint=eastwest;rotatable=0;" vertex="1" parent="116">
                    <mxGeometry y="60" width="160" height="30" as="geometry"/>
                </mxCell>
                <mxCell id="120" value="Outros" style="text;strokeColor=none;fillColor=none;align=left;verticalAlign=middle;spacingLeft=4;spacingRight=4;overflow=hidden;points=[[0,0.5],[1,0.5]];portConstraint=eastwest;rotatable=0;" vertex="1" parent="116">
                    <mxGeometry y="90" width="160" height="30" as="geometry"/>
                </mxCell>
                <mxCell id="126" style="edgeStyle=none;html=1;entryX=0.5;entryY=0;entryDx=0;entryDy=0;" edge="1" parent="1" source="124" target="3">
                    <mxGeometry relative="1" as="geometry"/>
                </mxCell>
                <mxCell id="124" value="Conta(s)" style="whiteSpace=wrap;html=1;" vertex="1" parent="1">
                    <mxGeometry x="315" y="450" width="70" height="60" as="geometry"/>
                </mxCell>
                <mxCell id="134" value="Sistema Financeiro" style="swimlane;childLayout=stackLayout;resizeParent=1;resizeParentMax=0;startSize=20;horizontal=0;horizontalStack=1;" vertex="1" parent="1">
                    <mxGeometry x="1190" y="40" width="1110" height="440" as="geometry"/>
                </mxCell>
                <mxCell id="135" value="Etapa 1" style="swimlane;startSize=20;" vertex="1" parent="134">
                    <mxGeometry x="20" width="360" height="440" as="geometry"/>
                </mxCell>
                <mxCell id="140" value="Orgchart" style="swimlane;startSize=20;horizontal=1;containerType=tree;newEdgeStyle={&quot;edgeStyle&quot;:&quot;elbowEdgeStyle&quot;,&quot;startArrow&quot;:&quot;none&quot;,&quot;endArrow&quot;:&quot;none&quot;};" vertex="1" parent="135">
                    <mxGeometry x="40" y="40" width="280" height="370" as="geometry"/>
                </mxCell>
                <mxCell id="141" value="" style="edgeStyle=elbowEdgeStyle;elbow=vertical;startArrow=none;endArrow=none;rounded=0;" edge="1" parent="140" source="143" target="144">
                    <mxGeometry relative="1" as="geometry"/>
                </mxCell>
                <mxCell id="142" value="" style="edgeStyle=elbowEdgeStyle;elbow=vertical;startArrow=none;endArrow=none;rounded=0;" edge="1" parent="140" source="143" target="145">
                    <mxGeometry relative="1" as="geometry"/>
                </mxCell>
                <UserObject label="Usuário" treeRoot="1" id="143">
                    <mxCell style="whiteSpace=wrap;html=1;align=center;treeFolding=1;treeMoving=1;newEdgeStyle={&quot;edgeStyle&quot;:&quot;elbowEdgeStyle&quot;,&quot;startArrow&quot;:&quot;none&quot;,&quot;endArrow&quot;:&quot;none&quot;};" vertex="1" parent="140">
                        <mxGeometry x="80" y="40" width="120" height="60" as="geometry"/>
                    </mxCell>
                </UserObject>
                <mxCell id="144" value="Logar" style="whiteSpace=wrap;html=1;align=center;verticalAlign=middle;treeFolding=1;treeMoving=1;newEdgeStyle={&quot;edgeStyle&quot;:&quot;elbowEdgeStyle&quot;,&quot;startArrow&quot;:&quot;none&quot;,&quot;endArrow&quot;:&quot;none&quot;};" vertex="1" parent="140">
                    <mxGeometry x="20" y="140" width="100" height="60" as="geometry"/>
                </mxCell>
                <mxCell id="145" value="Cadastrar" style="whiteSpace=wrap;html=1;align=center;verticalAlign=middle;treeFolding=1;treeMoving=1;newEdgeStyle={&quot;edgeStyle&quot;:&quot;elbowEdgeStyle&quot;,&quot;startArrow&quot;:&quot;none&quot;,&quot;endArrow&quot;:&quot;none&quot;};" vertex="1" parent="140">
                    <mxGeometry x="160" y="140" width="100" height="60" as="geometry"/>
                </mxCell>
                <mxCell id="136" value="Etapa 2" style="swimlane;startSize=20;" vertex="1" parent="134">
                    <mxGeometry x="380" width="390" height="440" as="geometry"/>
                </mxCell>
                <mxCell id="128" value="Cadastrar" style="swimlane;startSize=20;horizontal=0;childLayout=treeLayout;horizontalTree=1;resizable=0;containerType=tree;" vertex="1" parent="136">
                    <mxGeometry x="50" y="47.5" width="310" height="160" as="geometry"/>
                </mxCell>
                <mxCell id="129" value="Movimentação" style="whiteSpace=wrap;html=1;" vertex="1" parent="128">
                    <mxGeometry x="40" y="60" width="100" height="40" as="geometry"/>
                </mxCell>
                <mxCell id="130" value="Despesa" style="whiteSpace=wrap;html=1;" vertex="1" parent="128">
                    <mxGeometry x="190" y="100" width="100" height="40" as="geometry"/>
                </mxCell>
                <mxCell id="131" value="" style="edgeStyle=elbowEdgeStyle;elbow=horizontal;html=1;rounded=0;" edge="1" parent="128" source="129" target="130">
                    <mxGeometry relative="1" as="geometry"/>
                </mxCell>
                <mxCell id="132" value="Receita" style="whiteSpace=wrap;html=1;" vertex="1" parent="128">
                    <mxGeometry x="190" y="20" width="100" height="40" as="geometry"/>
                </mxCell>
                <mxCell id="133" value="" style="edgeStyle=elbowEdgeStyle;elbow=horizontal;html=1;rounded=0;" edge="1" parent="128" source="129" target="132">
                    <mxGeometry relative="1" as="geometry"/>
                </mxCell>
                <mxCell id="148" value="Cadastrar" style="swimlane;startSize=20;horizontal=0;childLayout=treeLayout;horizontalTree=1;resizable=0;containerType=tree;" vertex="1" parent="136">
                    <mxGeometry x="50" y="232.5" width="310" height="160" as="geometry"/>
                </mxCell>
                <mxCell id="149" value="Conta" style="whiteSpace=wrap;html=1;" vertex="1" parent="148">
                    <mxGeometry x="40" y="60" width="100" height="40" as="geometry"/>
                </mxCell>
                <mxCell id="150" value="Despesa" style="whiteSpace=wrap;html=1;" vertex="1" parent="148">
                    <mxGeometry x="190" y="20" width="100" height="40" as="geometry"/>
                </mxCell>
                <mxCell id="151" value="" style="edgeStyle=elbowEdgeStyle;elbow=horizontal;html=1;rounded=0;" edge="1" parent="148" source="149" target="150">
                    <mxGeometry relative="1" as="geometry"/>
                </mxCell>
                <mxCell id="152" value="Receita" style="whiteSpace=wrap;html=1;" vertex="1" parent="148">
                    <mxGeometry x="190" y="100" width="100" height="40" as="geometry"/>
                </mxCell>
                <mxCell id="153" value="" style="edgeStyle=elbowEdgeStyle;elbow=horizontal;html=1;rounded=0;" edge="1" parent="148" source="149" target="152">
                    <mxGeometry relative="1" as="geometry"/>
                </mxCell>
                <mxCell id="154" value="Etapa 3" style="swimlane;startSize=20;" vertex="1" parent="134">
                    <mxGeometry x="770" width="340" height="440" as="geometry"/>
                </mxCell>
                <mxCell id="155" value="Visualização" style="swimlane;startSize=20;horizontal=0;childLayout=treeLayout;horizontalTree=1;resizable=0;containerType=tree;" vertex="1" parent="154">
                    <mxGeometry x="20" y="40" width="310" height="160" as="geometry"/>
                </mxCell>
                <mxCell id="156" value="Movimentação" style="whiteSpace=wrap;html=1;" vertex="1" parent="155">
                    <mxGeometry x="40" y="60" width="100" height="40" as="geometry"/>
                </mxCell>
                <mxCell id="157" value="Despesa" style="whiteSpace=wrap;html=1;" vertex="1" parent="155">
                    <mxGeometry x="190" y="20" width="100" height="40" as="geometry"/>
                </mxCell>
                <mxCell id="158" value="" style="edgeStyle=elbowEdgeStyle;elbow=horizontal;html=1;rounded=0;" edge="1" parent="155" source="156" target="157">
                    <mxGeometry relative="1" as="geometry"/>
                </mxCell>
                <mxCell id="159" value="Receita" style="whiteSpace=wrap;html=1;" vertex="1" parent="155">
                    <mxGeometry x="190" y="100" width="100" height="40" as="geometry"/>
                </mxCell>
                <mxCell id="160" value="" style="edgeStyle=elbowEdgeStyle;elbow=horizontal;html=1;rounded=0;" edge="1" parent="155" source="156" target="159">
                    <mxGeometry relative="1" as="geometry"/>
                </mxCell>
                <mxCell id="162" value="Visualização" style="swimlane;startSize=20;horizontal=0;childLayout=treeLayout;horizontalTree=1;resizable=0;containerType=tree;" vertex="1" parent="154">
                    <mxGeometry x="20" y="240" width="310" height="160" as="geometry"/>
                </mxCell>
                <mxCell id="163" value="Conta" style="whiteSpace=wrap;html=1;" vertex="1" parent="162">
                    <mxGeometry x="40" y="60" width="100" height="40" as="geometry"/>
                </mxCell>
                <mxCell id="164" value="Despesa" style="whiteSpace=wrap;html=1;" vertex="1" parent="162">
                    <mxGeometry x="190" y="20" width="100" height="40" as="geometry"/>
                </mxCell>
                <mxCell id="165" value="" style="edgeStyle=elbowEdgeStyle;elbow=horizontal;html=1;rounded=0;" edge="1" parent="162" source="163" target="164">
                    <mxGeometry relative="1" as="geometry"/>
                </mxCell>
                <mxCell id="166" value="Receita" style="whiteSpace=wrap;html=1;" vertex="1" parent="162">
                    <mxGeometry x="190" y="100" width="100" height="40" as="geometry"/>
                </mxCell>
                <mxCell id="167" value="" style="edgeStyle=elbowEdgeStyle;elbow=horizontal;html=1;rounded=0;" edge="1" parent="162" source="163" target="166">
                    <mxGeometry relative="1" as="geometry"/>
                </mxCell>
            </root>
        </mxGraphModel>
    </diagram>
</mxfile>